<svg width="148" height="77" viewBox="0 0 148 77" fill="none" xmlns="http://www.w3.org/2000/svg">
<mask id="mask0_231_191" style="mask-type:luminance" maskUnits="userSpaceOnUse" x="0" y="0" width="148" height="77">
<path d="M0.653809 0.300293H147.731V76.4977H0.653809V0.300293Z" fill="white"/>
</mask>
<g mask="url(#mask0_231_191)">
<mask id="mask1_231_191" style="mask-type:luminance" maskUnits="userSpaceOnUse" x="0" y="0" width="148" height="77">
<path d="M12.6714 0.300293H135.792C142.429 0.300293 147.81 5.76627 147.81 12.5096V64.2884C147.81 71.0317 142.429 76.4977 135.792 76.4977H12.6714C6.03397 76.4977 0.653809 71.0317 0.653809 64.2884V12.5096C0.653809 5.76627 6.03397 0.300293 12.6714 0.300293Z" fill="white"/>
</mask>
<g mask="url(#mask1_231_191)">
<path d="M0.653809 0.300293H147.728V76.4977H0.653809V0.300293Z" fill="#FF8E29"/>
</g>
</g>
<mask id="mask2_231_191" style="mask-type:luminance" maskUnits="userSpaceOnUse" x="0" y="0" width="148" height="77">
<path d="M0.656494 0.300293H148V76.741H0.656494V0.300293Z" fill="white"/>
</mask>
<g mask="url(#mask2_231_191)">
<mask id="mask3_231_191" style="mask-type:luminance" maskUnits="userSpaceOnUse" x="0" y="0" width="148" height="77">
<path d="M12.6741 0.300293H135.784C142.421 0.300293 147.801 5.76627 147.801 12.5096V64.2829C147.801 71.0262 142.421 76.4921 135.784 76.4921H12.6741C6.03666 76.4921 0.656494 71.0262 0.656494 64.2829V12.5096C0.656494 5.76627 6.03666 0.300293 12.6741 0.300293Z" fill="white"/>
</mask>
<g mask="url(#mask3_231_191)">
<path d="M12.6741 0.300293H135.784C142.421 0.300293 147.801 5.76627 147.801 12.5096V64.2829C147.801 71.0262 142.421 76.4922 135.784 76.4922H12.6741C6.03666 76.4922 0.656494 71.0262 0.656494 64.2829V12.5096C0.656494 5.76627 6.03666 0.300293 12.6741 0.300293Z" stroke="white" stroke-width="10"/>
</g>
</g>
<mask id="mask4_231_191" style="mask-type:luminance" maskUnits="userSpaceOnUse" x="9" y="7" width="131" height="44">
<path d="M9.36206 7.85657H139.207V50.495H9.36206V7.85657Z" fill="white"/>
</mask>
<g mask="url(#mask4_231_191)">
<mask id="mask5_231_191" style="mask-type:luminance" maskUnits="userSpaceOnUse" x="9" y="7" width="131" height="44">
<path d="M18.7671 7.85657H129.696C134.888 7.85657 139.101 12.1337 139.101 17.4117V40.9399C139.101 46.2151 134.888 50.495 129.696 50.495H18.7671C13.5748 50.495 9.36206 46.2151 9.36206 40.9399V17.4117C9.36206 12.1337 13.5748 7.85657 18.7671 7.85657Z" fill="white"/>
</mask>
<g mask="url(#mask5_231_191)">
<path d="M9.36206 7.85657H139.041V50.495H9.36206V7.85657Z" fill="white"/>
</g>
</g>
<path d="M47.1773 20.9458L51.3029 32.0823H51.3465L55.4938 20.9458H60.3052V22.9364L59.4997 23.0139C59.0126 23.0664 58.7758 23.3539 58.7921 23.8765L59.4017 35.1678L60.9039 35.2452V37.3354H55.0584V35.3337L55.9292 35.2674C56.3701 35.2314 56.5824 35.0185 56.5606 34.6259L56.1034 25.9224H56.0599L52.3153 35.754H50.0184L46.3282 26.0219H46.2738L45.7948 35.1678L47.3732 35.2452V37.3354H41.6475V35.3337L42.5183 35.2674C42.8884 35.2314 43.0898 35.0102 43.1279 34.6038L43.781 23.1355L42.3006 23.036V20.9458H47.1773Z" fill="#FF8E29"/>
<path d="M67.0652 37.3354V35.3337L67.8598 35.2674C68.3306 35.2176 68.5674 34.9854 68.5674 34.5706V23.1134L67.1849 23.036V20.9458H78.9086V25.0377L76.4267 25.2036V24.2193C76.4267 23.9401 76.3859 23.7438 76.307 23.6332C76.2253 23.517 76.0348 23.4562 75.7301 23.4562H71.5282V27.8246H77.4935V30.335H71.5282V35.1678L73.6836 35.2452V37.3354H67.0652Z" fill="#FF8E29"/>
<path d="M91.0997 25.4247V34.6038C91.0997 34.8637 91.1432 35.0434 91.2303 35.1457C91.3228 35.2425 91.4834 35.2978 91.7093 35.3116L92.4821 35.3669V37.3354H88.6287V35.9088L88.5525 35.8756C87.7469 37.0645 86.6393 37.6561 85.2324 37.6561C83.5832 37.6561 82.3613 37.1225 81.564 36.0526C80.772 34.9854 80.3774 33.52 80.3774 31.6621C80.3774 29.4281 80.9108 27.6891 81.9776 26.4422C83.0444 25.1897 84.6473 24.5621 86.789 24.5621C88.1606 24.5621 89.5975 24.8497 91.0997 25.4247ZM88.2912 33.4205V27.0283C87.834 26.8154 87.2081 26.7076 86.4189 26.7076C85.3358 26.7076 84.552 27.1555 84.0676 28.0458C83.5805 28.9305 83.3383 30.1028 83.3383 31.5626C83.3383 34.2333 84.1792 35.566 85.8637 35.566C86.574 35.566 87.1537 35.3503 87.6054 34.9135C88.0626 34.4711 88.2912 33.9734 88.2912 33.4205Z" fill="#FF8E29"/>
<path d="M95.4695 34.5706V27.7472C95.4695 27.4817 95.4205 27.2993 95.328 27.1942C95.2409 27.0836 95.0831 27.0228 94.8599 27.0062L93.8367 26.9288V24.9381H97.9405V26.785C98.229 26.1436 98.6834 25.6128 99.3012 25.1925C99.9162 24.7723 100.624 24.5621 101.424 24.5621C102.221 24.5621 102.986 24.7446 103.721 25.104V28.7867L101.457 28.9526V27.8246C101.457 27.4928 101.375 27.2882 101.217 27.2053C101.043 27.1251 100.825 27.0836 100.564 27.0836C99.9162 27.0836 99.3883 27.3214 98.9746 27.7914C98.561 28.2559 98.3542 28.8503 98.3542 29.5719V35.2895L100.466 35.389V37.3354H93.9673V35.4664L94.7619 35.389C95.0069 35.3531 95.1865 35.284 95.2953 35.1789C95.4096 35.0683 95.4695 34.8665 95.4695 34.5706Z" fill="#FF8E29"/>
<path d="M118.029 35.389V37.3354H114.1V35.7318C113.207 37.0147 111.895 37.6561 110.17 37.6561C107.658 37.6561 106.403 36.235 106.403 33.3873V27.6918C106.403 27.2495 106.202 27.0228 105.805 27.0062L105.021 26.9619V24.9381H109.288V32.7459C109.288 33.6251 109.408 34.2831 109.647 34.7254C109.892 35.1678 110.398 35.389 111.16 35.389C111.922 35.389 112.532 35.154 112.989 34.6812C113.452 34.2029 113.686 33.6251 113.686 32.9449V27.7471C113.686 27.4817 113.637 27.2992 113.544 27.1942C113.457 27.0836 113.299 27.0228 113.076 27.0062L112.303 26.9619V24.9381H116.571V34.6038C116.571 34.8637 116.609 35.0406 116.69 35.1346C116.769 35.2231 116.932 35.2839 117.18 35.3116L118.029 35.389Z" fill="#FF8E29"/>
<path d="M127.607 39.68V36.2737C126.829 37.1972 125.816 37.6561 124.57 37.6561C123.329 37.6561 122.338 37.3382 121.598 36.7051C120.863 36.0719 120.36 35.331 120.085 34.4822C119.807 33.6279 119.671 32.6878 119.671 31.6621C119.671 29.2678 120.232 27.4873 121.359 26.3205C122.483 25.1483 124.007 24.5621 125.931 24.5621C127.52 24.5621 129.017 24.869 130.426 25.48V40.3877L131.831 40.4652V42.4337H125.452V40.5647L126.878 40.4873C127.123 40.4707 127.305 40.4043 127.422 40.2882C127.544 40.1776 127.607 39.973 127.607 39.68ZM127.585 33.2878V27.0062C127.033 26.8071 126.393 26.7076 125.669 26.7076C124.695 26.7076 123.949 27.1334 123.427 27.9794C122.91 28.8282 122.654 29.9258 122.654 31.275C122.654 33.2823 123.051 34.5596 123.851 35.1125C124.205 35.3641 124.695 35.4885 125.321 35.4885C125.952 35.4885 126.486 35.3005 126.921 34.9245C127.362 34.543 127.585 33.9956 127.585 33.2878Z" fill="#FF8E29"/>
<mask id="mask6_231_191" style="mask-type:luminance" maskUnits="userSpaceOnUse" x="14" y="18" width="25" height="22">
<path d="M14.9192 18.9351H38.353V39.4608H14.9192V18.9351Z" fill="white"/>
</mask>
<g mask="url(#mask6_231_191)">
<path d="M35.2751 21.3184H20.5252C20.4898 21.1608 20.3837 20.6935 20.3837 20.6935C20.1796 19.7894 19.3986 19.1591 18.4842 19.1591H16.0377C15.4199 19.1591 14.9192 19.6678 14.9192 20.2981C14.9192 20.9258 15.4199 21.4345 16.0377 21.4345H18.2556C18.3264 21.758 21.0232 33.6493 21.0232 33.6493L20.3837 35.3662C20.0626 36.2343 20.1796 37.2076 20.6994 37.9706C21.2192 38.7337 22.0737 39.1871 22.9881 39.1871H33.2449C33.8654 39.1871 34.3662 38.6784 34.3662 38.0508C34.3662 37.4232 33.8654 36.9145 33.2449 36.9145H22.9881C22.7404 36.9145 22.6016 36.7652 22.5418 36.6767C22.4819 36.5882 22.3921 36.403 22.4792 36.168L22.9636 34.8658H33.4763C34.7798 34.8658 35.8928 33.9645 36.1868 32.6761L37.9829 24.7799C38.1761 23.9366 37.9829 23.0629 37.4522 22.3856C36.9215 21.7082 36.1269 21.3184 35.2751 21.3184ZM35.803 24.2684L34.0042 32.1646C33.9471 32.4162 33.7293 32.5904 33.4763 32.5904H23.0806C22.6751 30.796 21.7308 26.635 21.0423 23.5938H35.2751C35.501 23.5938 35.637 23.7237 35.6996 23.8011C35.7595 23.8785 35.8547 24.0417 35.803 24.2684Z" fill="#FF8E29"/>
</g>
<path d="M24.7625 25.6257C24.1448 25.6257 23.644 26.1345 23.644 26.7621V29.4218C23.644 30.0494 24.1448 30.5581 24.7625 30.5581C25.383 30.5581 25.8837 30.0494 25.8837 29.4218V26.7621C25.8837 26.1345 25.383 25.6257 24.7625 25.6257Z" fill="#FF8E29"/>
<path d="M28.2811 25.6257C27.6606 25.6257 27.1599 26.1345 27.1599 26.7621V29.4218C27.1599 30.0494 27.6606 30.5581 28.2811 30.5581C28.8989 30.5581 29.3996 30.0494 29.3996 29.4218V26.7621C29.3996 26.1345 28.8989 25.6257 28.2811 25.6257Z" fill="#FF8E29"/>
<path d="M31.7972 25.6257C31.1795 25.6257 30.676 26.1345 30.676 26.7621V29.4218C30.676 30.0494 31.1795 30.5581 31.7972 30.5581C32.415 30.5581 32.9157 30.0494 32.9157 29.4218V26.7621C32.9157 26.1345 32.415 25.6257 31.7972 25.6257Z" fill="#FF8E29"/>
<path d="M43.7907 65.1904L44.9881 58.7429H46.8169L44.8466 67.8003H42.996L41.5483 61.7399L40.0896 67.8003H38.2391L36.2688 58.7429H38.0976L39.3059 65.1793L40.7754 58.7429H42.332L43.7907 65.1904Z" fill="white"/>
<path d="M57.1282 65.9314H53.9061L53.2857 67.8003H51.3372L54.6572 58.7429H56.3554L59.6972 67.8003H57.7378L57.1282 65.9314ZM54.396 64.4273H56.6275L55.5063 61.0322L54.396 64.4273Z" fill="white"/>
<path d="M68.1006 64.4826H66.6419V67.8003H64.8022V58.7429H68.1114C69.1701 58.7429 69.9837 58.9835 70.5498 59.4618C71.1213 59.9345 71.4098 60.6064 71.4098 61.4745C71.4098 62.0938 71.2791 62.6108 71.0179 63.0228C70.7566 63.4375 70.3566 63.7638 69.8205 64.0071L71.7472 67.7119V67.8003H69.7769L68.1006 64.4826ZM66.6419 62.9675H68.1223C68.585 62.9675 68.9415 62.8514 69.1891 62.6136C69.4422 62.3786 69.5701 62.0496 69.5701 61.6294C69.5701 61.2036 69.4504 60.8663 69.2109 60.623C68.9768 60.3797 68.6122 60.258 68.1114 60.258H66.6419V62.9675Z" fill="white"/>
<path d="M79.4868 58.7429L81.7727 65.312L84.0478 58.7429H86.4644V67.8003H84.6247V65.3231L84.7989 61.0543L82.3932 67.8003H81.1413L78.7357 61.0543L78.9207 65.3231V67.8003H77.0811V58.7429H79.4868Z" fill="white"/>
<path d="M97.3824 65.9314H94.1603L93.5398 67.8003H91.5913L94.9114 58.7429H96.6095L99.9514 67.8003H97.992L97.3824 65.9314ZM94.6501 64.4273H96.8817L95.7605 61.0322L94.6501 64.4273Z" fill="white"/>
<path d="M105.056 67.8003V58.7429H107.799C108.583 58.7429 109.282 58.9254 109.9 59.2848C110.523 59.6387 111.005 60.1474 111.348 60.811C111.696 61.4745 111.87 62.2265 111.87 63.067V63.4873C111.87 64.3278 111.699 65.077 111.359 65.7323C111.016 66.3903 110.534 66.899 109.911 67.2584C109.293 67.6123 108.597 67.7948 107.821 67.8003H105.056ZM106.896 60.258V66.2963H107.778C108.496 66.2963 109.043 66.0613 109.421 65.5885C109.805 65.1102 110.001 64.4273 110.009 63.5426V63.056C110.009 62.1353 109.819 61.4386 109.443 60.9658C109.073 60.4958 108.523 60.258 107.799 60.258H106.896Z" fill="white"/>
</svg>
